<mxfile host="Electron" modified="2023-11-10T03:07:10.645Z" agent="Mozilla/5.0 (Windows NT 10.0; Win64; x64) AppleWebKit/537.36 (KHTML, like Gecko) draw.io/22.0.2 Chrome/114.0.5735.289 Electron/25.8.4 Safari/537.36" etag="jYr4yOQP3f-3SLJsWAsW" version="22.0.2" type="device">
  <diagram name="Page-1" id="Upmhb2kAnFuvPFFSdRJG">
    <mxGraphModel dx="794" dy="559" grid="1" gridSize="10" guides="1" tooltips="1" connect="1" arrows="1" fold="1" page="1" pageScale="1" pageWidth="850" pageHeight="1100" math="0" shadow="0">
      <root>
        <mxCell id="0" />
        <mxCell id="1" parent="0" />
        <mxCell id="NBTSeYGd2M1Dg0aQ-eE9-8" style="edgeStyle=orthogonalEdgeStyle;rounded=0;orthogonalLoop=1;jettySize=auto;html=1;exitX=1;exitY=0.5;exitDx=0;exitDy=0;" edge="1" parent="1" source="NBTSeYGd2M1Dg0aQ-eE9-5" target="NBTSeYGd2M1Dg0aQ-eE9-7">
          <mxGeometry relative="1" as="geometry" />
        </mxCell>
        <mxCell id="NBTSeYGd2M1Dg0aQ-eE9-10" style="edgeStyle=orthogonalEdgeStyle;rounded=0;orthogonalLoop=1;jettySize=auto;html=1;exitX=1;exitY=0.5;exitDx=0;exitDy=0;" edge="1" parent="1" source="NBTSeYGd2M1Dg0aQ-eE9-5" target="NBTSeYGd2M1Dg0aQ-eE9-9">
          <mxGeometry relative="1" as="geometry" />
        </mxCell>
        <mxCell id="NBTSeYGd2M1Dg0aQ-eE9-5" value="&lt;b style=&quot;&quot;&gt;Vault Admin&lt;/b&gt;" style="rounded=1;whiteSpace=wrap;html=1;fillColor=#dae8fc;strokeColor=#6c8ebf;" vertex="1" parent="1">
          <mxGeometry x="20" y="220" width="130" height="60" as="geometry" />
        </mxCell>
        <mxCell id="NBTSeYGd2M1Dg0aQ-eE9-1" value="" style="shape=image;verticalLabelPosition=bottom;labelBackgroundColor=default;verticalAlign=top;aspect=fixed;imageAspect=0;image=data:image/png,/9j/4AAQSkZJRgABAQAAAQABAAD/2wBDAAEBAQEBAQEBAQEBAQEBAQEBAQEBAQEBAQEBAQEBAQEBAQEBAQEBAQEBAQEBAQEBAQEBAQEBAQEBAQEBAQEBAQH/2wBDAQEBAQEBAQEBAQEBAQEBAQEBAQEBAQEBAQEBAQEBAQEBAQEBAQEBAQEBAQEBAQEBAQEBAQEBAQEBAQEBAQEBAQH/wAARCAFAAUADASIAAhEBAxEB/8QAHwAAAQUBAQEBAQEAAAAAAAAAAAECAwQFBgcICQoL/8QAtRAAAgEDAwIEAwUFBAQAAAF9AQIDAAQRBRIhMUEGE1FhByJxFDKBkaEII0KxwRVS0fAkM2JyggkKFhcYGRolJicoKSo0NTY3ODk6Q0RFRkdISUpTVFVWV1hZWmNkZWZnaGlqc3R1dnd4eXqDhIWGh4iJipKTlJWWl5iZmqKjpKWmp6ipqrKztLW2t7i5usLDxMXGx8jJytLT1NXW19jZ2uHi4+Tl5ufo6erx8vP09fb3+Pn6/8QAHwEAAwEBAQEBAQEBAQAAAAAAAAECAwQFBgcICQoL/8QAtREAAgECBAQDBAcFBAQAAQJ3AAECAxEEBSExBhJBUQdhcRMiMoEIFEKRobHBCSMzUvAVYnLRChYkNOEl8RcYGRomJygpKjU2Nzg5OkNERUZHSElKU1RVVldYWVpjZGVmZ2hpanN0dXZ3eHl6goOEhYaHiImKkpOUlZaXmJmaoqOkpaanqKmqsrO0tba3uLm6wsPExcbHyMnK0tPU1dbX2Nna4uPk5ebn6Onq8vP09fb3+Pn6/9oADAMBAAIRAxEAPwD+/Ik5PJ6nufWkyfU/ma/A7/gt1/wWj+Jf/BHGz+CvjRP2KD+0l8H/AIv3Wu+Gbj4j23x/l+FP/CFfEjR421S18Fa1oZ+B/wASoZh4k8Mrda54b1ZddtZNROheKbKTSbZdFivNR/n3/wCI5j/rF/8A+bp//km0Af3bePScaVyet73P/TpXnWT6n8zX8Nmv/wDB7z/bgtB/w7K+y/ZvP/5vM8/f53k/9WqQ7dvlf7W7d2xzzv8AxGtf9Y1f/Nxf/wAlqgD+7YE5HJ6jufWvofJ9T+Zr/PCH/B61gg/8O1On/V4v/wCS1Xon/Ecx/wBYv/8AzdP/APJNoA/v5yfU/ma888ek40rk9b3uf+nSv4Sf+I5j/rF//wCbp/8A5Jtc7r//AAe8/wBuC0H/AA7K+y/ZvP8A+bzPP3+d5P8A1apDt2+V/tbt3bHIB/cnk+p/M0oJyOT1Hc+tfwk/8RrX/WNX/wA3F/8AyWqB/wAHrWCD/wAO1On/AFeL/wDktUAf6HuT6n8zRk+p/M1/AN/xHMf9Yv8A/wA3T/8AyTaP+I5j/rF//wCbp/8A5JtAH923j0nGlcnre9z/ANOledZPqfzNfw2a/wD8HvP9uC0H/Dsr7L9m8/8A5vM8/f53k/8AVqkO3b5X+1u3dsc87/xGtf8AWNX/AM3F/wDyWqAP7tgTkcnqO59a+h8n1P5mv88If8HrWCD/AMO1On/V4v8A+S1Xon/Ecx/1i/8A/N0//wAk2gD+/nJ9T+Zrzzx6TjSuT1ve5/6dK/hJ/wCI5j/rF/8A+bp//km1zuv/APB7z/bgtB/w7K+y/ZvP/wCbzPP3+d5P/VqkO3b5X+1u3dscgH9yeT6n8zSgnI5PUdz61/CT/wARrX/WNX/zcX/8lqgf8HrWCD/w7U6f9Xi//ktUAf6HuT6n8zRk+p/M1/AN/wARzH/WL/8A83T/APyTaP8AiOY/6xf/APm6f/5JtAH923j0nGlcnre9z/06V51k+p/M1/DZr/8Awe8/24LQf8Oyvsv2bz/+bzPP3+d5P/VqkO3b5X+1u3dsc87/AMRrX/WNX/zcX/8AJaoA/u2BORyeo7n1r6HyfU/ma/zwh/wetYIP/DtTp/1eL/8AktV6J/xHMf8AWL//AM3T/wDyTaAP7+cn1P5mvPPHpONK5PW97n/p0r+En/iOY/6xf/8Am6f/AOSbXO6//wAHvP8AbgtB/wAOyvsv2bz/APm8zz9/neT/ANWqQ7dvlf7W7d2xyAf3J5PqfzNKCcjk9R3PrX8JP/Ea1/1jV/8ANxf/AMlqgf8AB61gg/8ADtTp/wBXi/8A5LVAH+h7k+p/M0ZPqfzNfwDf8RzH/WL/AP8AN0//AMk2j/iOY/6xf/8Am6f/AOSbQB/dt49JxpXJ63vc/wDTpXnWT6n8zX8Nmv8A/B7z/bgtB/w7K+y/ZvP/AObzPP3+d5P/AFapDt2+V/tbt3bHPO/8RrX/AFjV/wDNxf8A8lqgD+7YE5HJ6jufWvofJ9T+Zr/PCH/B61gg/wDDtTp/1eL/APktV6J/xHMf9Yv/APzdP/8AJNoA/v5yfU/ma888ek40rk9b3uf+nSv4Sf8AiOY/6xf/APm6f/5Jtc7r/wDwe8/24LQf8Oyvsv2bz/8Am8zz9/neT/1apDt2+V/tbt3bHIB/cnk+p/M0oJyOT1Hc+tfwk/8AEa1/1jV/83F//Jar95f+CMX/AAWH+I3/AAV0tPjF4xf9jY/s7/CX4TXOieHIPiHc/HaX4of8Jl8Q9WQalc+DtH0UfBf4dQwjw94ca21rxFqra5cyaedb8M2aaVcrrEt3p4B+kX/BTT9lTwN/wUc/Yq+OH7J/jTSrOxu/HvhuS++Hniq7m89vAfxW8OMdX+HnjKEx2Jukg0vxDb21vrsFk0Nxq3ha+17QjKkGqzg/4vfxL+HPjP4P/ETx18KPiNoV54X8ffDbxb4h8DeM/DuoIEvNE8T+FtVutF1vTLgKWRntNQs7iHzI2eGZVEsLvE6O3+5k3U/U/wA6/wA9n/g7j/4Jwf8ACufi34J/4KK/DLQfK8HfGmfTvhr8fotOtsW+j/FnRdKdPBPjS7WFdsMPj7wjpUmhajcFIraPXvBtrcXU02qeLF8wA/i8ooooAKKKKACiiigAooooAKKKKACiiigAooooAKKKKACiiigAooooAKKKKACiiigAooooAKKKKACiiigAooooAKKKKACiiigDu/hd8NPG/wAZ/iT4B+EXw08P3viv4h/E7xj4c8BeCPDWnIHvdd8VeLNWtND0LS7cMVRXvNSvbeHzZWSGFXaWaSOJHdf9o7/gm5/wTp8Gf8E9/wBjX4Kfst+EtUsru98D+HIb74g+JbPTCn/Ca/FPxCV1b4g+LZJJZ47uW31HxDcXNtocd7vuNM8MWOh6KH8jTIVX+LX/AIM6P+CZZ+Jfxh8df8FKfin4f87wX8D59S+GH7PEOpWubfWfi/rmkInjnxzaJMu2aD4eeDdXj0DTbkJNbS+IfGt3c2k0OreEG8v/AEcl6j6j+dAHzwQcng9T2PrXzH+2X+yt8Pf22P2YPjP+y78UbYP4S+L3gvUPDraiLaO6u/DHiCMx6l4R8Z6VFKVjbWPBniqx0fxPpSyMIpL3S4YbgPbSzRv+kbdT9T/OkoA/wdP2h/gR8RP2YPjl8Vf2e/ixpLaJ8RPhB4317wL4pssSG2kv9EvZLePU9MmljiN7omt2Ytta0HUkQQ6nouoWGoW5aC5jY+NV/fp/weVf8E1ohL8NP+Cm3wu8P4nkj0n4NftPpp1t9+OBoLH4Q/E/UvKTl0M5+GGvalcuSU/4Vpp8CBY53r+AugAooooAKKKKACiiigAooooAKKKKACiiigAooooAKKKKACiiigAooooAKKKKACiiigAooooAKKKKACiiigAooooAK9s/Zu/Z/wDiR+1X8e/hJ+zj8IdHbXPiR8ZvHfh/wD4UsiJBaxX+u30dtLquqzxRymx0HQbI3WueINTdDBpeiadqGo3BWC1kYeJ1/eJ/waJ/8E1ZrbT/ABr/AMFN/ijoG1dRk8SfBr9mCPUbbkw2jRWPxd+J+mmVCCsk7/8ACsNB1G2cMpt/iXp86FZLeQgH9w37E37Jnw3/AGGP2Vfgj+yl8KLZY/B/wa8D6b4aTUmto7W88U+IZDLqfjHxtq0MTNGuteNvFt/rXinVljYwx3+rTw24S2ihjT6nXqPqP51875PqfzNKCcjk9R3PrQB9Dt1P1P8AOkrz0+PRk/8AEqPU/wDL6PX/AK9KT/hPR/0Cj/4Gj/5EoA8f/a/+Bnw8/aa+CHj79n/4saQuufDv4veCfFngTxXYfu1uBpuu2MNoNQ02eSOUWWtaPctBq+halGhn0vWbGx1G2K3FrEy/4qf7aX7KfxD/AGIv2o/jR+y38T4GHin4ReM7/QE1QW0lraeKfDc6xan4O8aaXFKWddJ8ZeFL7R/EunI7NLBbamltc7LqCeNP9w3jxuO+mf2Yf+vzz/tn/gL5fl/Zf+mm/wAz+DZ838WP/B3z/wAEs5fHPwQ8Gf8ABR34W6WdR8Z/AmLTvhz8f7fTtO8u71f4Oa9q7R+D/GtysMkz3Mvw78Z6s2kahKInnPhzxqb69uItK8JKIgD/ADn6KKKACiiigAooooAKKKKACiiigAooooAKKKKACiiigAooooAKKKKACiiigAooooAKKKKACiiigAooooAKKKKAPq39h39kb4kft3ftX/BD9lD4VQOfFfxj8baf4ek1Y20l3Z+EvDFusuq+NfHGqwxMjtpHgrwjYa14n1KNHWa4ttLe1tt93PBG/wDtNfDP4C/Dj9lz4E/BL9nb4RaMmgfDb4NeBdL8AeEdOAjNwdL8P6fp9n/aGpzxxxC+1vWblLjWNe1SRBcarrV/f6ldF7m6ldv5CP8Ag0C/4J8xfBf4Q+Ov+Ci/xP8ACnmePPjvaXvw3+Aa6iBBc+H/AIN6JrAHjLxdaRzW8kkNx8R/GOkw6VZTlIp08OeCku7KabS/F0ok/te48bjvpn9mH/r88/7Z/wCAvl+X9l/6ab/M/g2fMAec0q9R9R/OvRP+ECH/AEFT/wCAQ/8AkulHgIZH/E1PUf8ALkPX/r7oA86bqfqf50lOIOTwep7H1pMH0P5GgD0TwF01X62X8rurnxM+HHgr4w/Drx38J/iR4fsfFfw++JfhDxF4E8beGdTjMlhr3hXxXpN3oevaTdqCr+Tf6ZfXNu7RsksfmeZE6SKrin4CBA1XIxzZf+3deh0Af4hX/BTz9hPxr/wTg/bb+N/7KPi8X17pvgjxJJqfw08VXkPlDx18JPEu7V/h34ujeONLWW6vdAmgsPEMVkZLbS/Fum+INEErS6XLj4Er/T8/4O5v+CZn/DT37IOkftv/AAy8P/bPjP8Asc2V7L47XT7XzNS8Wfs36td/a/FSzmNDLct8KdblHj2yMjpb6Z4XvviRdESTzwKP8wOgAooooAKKKKACiiigAooooAKKKKACiiigAooooAKKKKACiiigAooooAKKKKACiiigAooooAKKKKACvuz/AIJrfsReMf8Agob+2b8F/wBlzwoL2z03xl4hTVPiP4ns4RJ/whPwp8NlNV+IHit3kR7aO6s9DhmsNAjvDHbal4q1LQdGMiy6lFn4Tr/Sq/4NTP8Agm+f2av2TNV/bO+I+gG0+MP7XNnZTeClv7bZqPhb9nnSrr7V4Wjh8xBLbP8AE/WY28dXhjdrfUvDVp8PLjak9vMpAP6i/hz8PvB3wl+H/gj4W/DzQrLwv4D+HPhPw/4I8GeHNNQx2GheF/C2lWui6HpVohLN5NjptlbW6M7PI4j3yO8jMx948BdNV+tl/K7rzvB9D+Rr0TwECBquRjmy/wDbugD0OlXqPqP50lKvUfUfzoAG6n6n+dJSt1P1P86SgDzzx6SBpWDjm9/9tK87yfU/ma9E8e9NK+t7/K0rzqgDM1zRNI8UaJrHhrxFptlrfh/xDpeoaHrujapbRXumavo+rWkthqemajZXCvBd2N/ZXE9rd20yPFPBLJFIrIxB/wAgT/gtD/wTq1v/AIJj/t+fF79nlLS/Pwq1W7/4Wb+z7r1750v9u/Bjxne38/hq2a9mJe+1TwZfWurfD/xBdyCN7zXPCt9qKQpaX1oz/wCwevUfUfzr8Ef+Dpr/AIJmf8Nx/sEX/wAdfhz4f/tH9oX9jGDX/ih4bWwtfN1fxf8ACCW0hm+MPgZBEpnvJrTSNLsviDoNsFubl9S8H3Oi6VAtx4ouTIAf5QlFFFABRRRQAUUUUAFFFFABWroWh6x4n1zRvDXh7TbzWdf8Q6rp+h6Ho+nQSXWoarrGrXcNhpmm2NtEGkuLy+vbiC1toI1Z5ZpUjQFmArKr6p/YW+KXg74HfttfsffGn4hxRz+AfhH+1D8A/iZ42jlhkuEPhLwL8VPCvifxExt4jvuGj0jS7uRICsiTOixywzxM8LgH+ij/AMEzP+DSn9iD4MfBvwn4p/b68IXX7TX7R3iXQ9P1fxf4Zu/GPirw38I/hdqd/apcT+EPC+leBNc8PXfjG80QzPpmreKvFWq6rpusXtu1/oOgaFB5Xm8h/wAFWP8Ag0u/Y/8Aib8EfGfxH/4J0+DdR+AH7RXgvQtR8RaF8MLbxd4p8UfC34xvpdpLeXHg6Sy8b6x4i1TwV4u1iK3Wy8J6zoOs2HhdNVeKz8Q6CbfUZNf0b+xTR9Y0nxDpOl6/oOp2GtaHrenWWr6NrGlXdvqGmarpWpW0V5p+padf2kktre2F9aTQ3Vpd20skFzbyxzQyPG6sc7xf4t8M+AfCfifx1401zTfDPg7wZ4e1nxX4r8R6zdR2WkaB4b8Padc6trmtapeTFYrXTtL0y0ub29uJCEht4JJGO1TQB/gcXVrc2NzcWV7bzWl5ZzzWt3a3MTwXFtc28jRT29xDIqyQzQyo8csUiq8cisjqGBA/rq/4N2f+DdPwh/wUf8GX/wC2J+2HqfirSf2YNN8Val4T+Gvw28IajJ4c1/42654amS38U6xrHiqKJ9Q0H4caHqZl8Nf8U29r4k8Q+IrPXLa21vw5B4eaTW/5d/2kvHnh74p/tE/Hv4neEbOTTvCfxG+NHxR8d+GNPlhS3lsPD3i7xxrniDRbOS3jVI4JLXTdQtoHhRESJkKKqhQB/q0/8Gtfxq+HHxW/4Iz/ALNPhbwRqFgfEPwN1H4ofCz4neH7Z7dbvw94yPxO8W+Ord723hCMo8TeF/Gfh/xXDcvEBcNrFxG0s91bXT0AVfjZ/wAGsP8AwRo+K3w4vvBPhD9nHWfgR4lGmy2nh74n/C74q/FC48XaBd+W/wBnvbiy8f8Ai7xr4U8UBZjG1zH4o8P6pcTwo0Nve2Tv56f5l/8AwUw/4J+fFT/gmT+198SP2UPire23iC48L/2f4h8C+PNOs5tP0n4kfDTxKktz4S8a6dYzy3Elg95FBd6VrmlG6vV0TxTo+vaJHqGpR6cl/c/7fFf5cP8AweQfGv4c/E7/AIKg+A/AfgnULHWPEXwG/Zl8F/D74nXtk8Ep0zxjrnjXx/8AEW18J3M0QZnuNG8K+MPD2qzxvMwtbnxHPZtDBc290JAD8aP+CSH/AATK+JP/AAVc/bB8M/s1eCNaXwV4U0/Rr74g/GT4lzWB1KH4ffC/Qr7TNP1XVLPTvNt01XxHq+qavpPhzwtpD3EEV1rOrQXV9NbaPYapeWv+lb8Mf+DXr/giz8PPh3ZeA9Y/ZTuPirqKaetnrPxG+JHxX+K9x4+8Q3XkiGXVLi98I+MfCGg6DeSj5xF4M8PeGdPgkxLb2UUuXb+V7/gyo+NPw58GftnftSfBfxNf2Gm+P/jX8D/DWp/DRr6SCGbW3+FnibUtU8YeGdJkkAluNVn0TxLF4nOn27b5dI8I6vfvG8els8X+lTQB/ljf8HFP/Bvl4f8A+CYNr4Y/aj/ZY1fxP4h/ZM8e+LIfBHiHwh4uvW17xX8EvHWq2uoanoNn/wAJElvDceIPh54kttN1Cx0XVdajOtaFq9lbaLrmra3c65pV7L/KRX+sD/wdt/Gf4dfDv/gjx8UPhp4q1DT18bfH74m/BnwX8L9HlkgbVLrV/B3xM8L/ABV8TavZWjB7oWOk+EfBGrWOo6lEscFpca7pdhc3CPq9tb3X+T9QAUUUUAFFFFABRRRQAUUUUAfqN/wR1/4J96x/wUk/bt+FHwDltL4fC7Sbr/hZPx61u0M0I0X4QeELyxm8Q2i3sPz2Wp+Mr650rwFoN1GJJLTWfE9nqLwvaWN2yf7Sug6FovhfQ9G8M+HNLsND8PeHdK07QtB0TSrWGx0vR9G0i0hsNL0vTrK3SO3s7DT7G3gtLO1gjSG3t4Y4okVEUD+Ub/g2T/4Jwf8ADFP7DWn/ABp+IOg/2d8ff2v4tB+JniRb628rVfCfwojtZZvhJ4JkEqie0muNJ1O88d65bMtvcx6n4ti0bU4Wn8N2xT+s6gArzzx6SBpWDjm9/wDbSvQ6888e9NK+t7/K0oA87yfU/maUE5HJ6jufWm0q9R9R/OgD0U+PRk/8So9T/wAvo9f+vSk/4T0f9Ao/+Bo/+RK87bqfqf50lAHo3Hjcd9M/sw/9fnn/AGz/AMBfL8v7L/003+Z/Bs+ZP+ECH/QVP/gEP/kujwF01X62X8ruvQ6APPB4CAIP9qnj/pyH/wAl1HN43hnilt7jRUngmjkhnhlukkimikUpJFJG9mUkjkRmR0YFWUlWBBIr0evnhup+p/nQB/ki/wDBfH/gnV/w7r/b/wDiF4W8G6BJo/7PvxrlvvjL+z/5KMdM0nwr4i1K4PiH4dW06xrEsvwz8Tm+8PWlk0kt8vhF/CGq35Euspn8UK/1k/8Ag4Q/4JxD/goX+wP4uj8FaENU/aE/Z2/tT4x/BE2tuJdW12TTNOP/AAn3w0tCqNPMPiB4WtGTTNPiKLeeNtC8FvPIsFtLn/JtIKkqwKspIZSCCCDggg8gg8EHkGgBKKKKACiiigAooooAKKKu6Zpuo6zqWn6PpFjd6pq2rXtppul6bYW8t3f6jqN9PHa2VjZWkCST3V3d3MsVvbW8KPLNNIkcaM7AEA/oR/4Jx/8ABzH/AMFE/wDgnX8MtF+BOkz/AA8/aI+B3ha2TT/BPgf456f4i1HWPh5pEQxDoPgbxz4Z8Q6Br9h4etgEi0/w/wCIT4o0TRLRRZeHtP0e1xGOe/4KVf8AByD/AMFC/wDgpX8Pb74I+Lr/AMBfAb4DayYf+Eq+GPwM07xBpB+IMNtIlxbWXxD8X+JPEPiHxJr2kQXS+c3hzTLrw94Wv3S0l1nQtUu7Czuof6rf+CZP/BoR+yR4H+DvhHx3/wAFILHxP8c/jt4t0ax1vxF8ItB8e+JvAPwr+Fb6hbR3UfhE6r8OtW8O+MvGXirSBL9n8ReIF8W2fhmTUUlsNE0W5srJNf1nkP8Agqv/AMGiP7Mms/BTxr8WP+CaFh4x+Ffxp8CaFqPiPT/gDrfjLxD8Q/h98WbTSbea+vPC3hvWPHOoa5458KePdRgjkj8M3d94r1nwzqepR2ehahpeix6jJ4m0wA/zhK+/f+CfH/BTX9sD/gmL8U9Q+Kf7KHxFTw3L4jtbPTvH3gHxLpy+Jvhl8SNK0+aS4sLHxn4TnntluJtOlnuTpWv6NfaL4q0aO91G30fXrC31TUobv4GlilglkgnjkhmhkeKaGVGjliljYpJHJG4DJIjgq6MAysCpAIIr+sP/AIN8P+Dc/T/+CmvhfU/2sP2rPEvi3wR+yjo/ibUPCfgbwp4HuLbSPG/xu8S+H5I08SXUfiK/sdRh8NfDrw9fMNBvtS06wutb8Ra5FrWkaVe+HZdBuNSmAND41/8AB5H/AMFO/ib8OL7wT4A+H37M/wABvEmr6c9jqHxP8B+D/GfiDxdprzQmKa88I2XxC8deK/CuiXLFnaKXV9A8TzWpKPazQ3ES3FfykeLPFnijx54o8ReNvG3iLWvF3jHxdrWp+JPFPinxJqd5rXiDxF4g1q8m1DV9b1vV9QmuL7U9U1O+uJ7y+vryea5urmaSaaR5HZj/AKtHxr/4NKv+CO3xI+HN74T+Gvwo+I/7PnjX+z5ItH+KPgX4zfE7xfrNtqaQsLS81nw18WPFXjvwjq9ibkRyalp9lpGhXN3bedb2Gq6RNJFdwf5rv/BRv9gf4v8A/BNP9rT4kfsofGWWz1bWPB8llrHhLxrpNtPa6D8SPh34hSS68I+O9Et7l5pbSDVrSOa11TS3uLuTQPEmna34elvbybSZLqYA+Ufhp8S/iB8G/H/hD4qfCrxh4g+H/wARvAOvaf4n8G+NPCup3Oj+IPDmvaXOtxY6lpmoWjxzQTxSLhhkxTwtJb3EctvLLE/9Xnwv/wCDzj/gpb4K+Hln4U8c/CL9ln4veMtN09bK3+JviTwn478NaxrE8cSImqeK/Dvgfx74f8LX1/JIHluV8M6b4OsJQypFY25VpJPwZ/4Je/8ABOP4v/8ABUn9rfwb+y38Jb6z8NRXun3/AIy+JvxG1Wym1HRvhh8LvD9zYW/iPxjfadbzW0+rXYu9U0nQPDmiRXVkNa8U65oum3WpaRp1xe6xp/8Ao7fDH/g0i/4I4+Cvh5ZeEvG3ww+LPxi8XpYCHUfin4t+NvxD8OeJbrUXgCT31joHw51nwd4FsIEuC8+n2M/hjUvs8flQXt1qZSSaYA/zYf2+P+Cjf7Wn/BSv4vx/GX9q/wCJEvjHWNKtLrSvBXhLR7KPw/8ADv4b6Ddzx3FxofgTwjaSSWmk291LBbPqmp3U2o+I9fktLOfxDrerXFpbyx/DNf03/wDBwJ/wb83v/BJ+78J/Hn4D+LfE3xM/ZB+JXif/AIQ2Cfxl9iufiB8IPH11Zajq+meE/Fuo6Rp+maZ4i8OeIdM0vU5/Cni230zTLhLnTL3w/wCIbGO/XR9X8T/zIUAFFFFABRRRQAUUUUAFfuJ/wb8/8Ezbr/gpl/wUC8DeDfFWkvdfs+/BGO0+M37QN7PatPpd/wCGdA1KBfDPw6nJMUM1z8TPFQsdAurAXNveN4Qh8ZavYs8miOtfh4qs7KiKWZ2CqqglmZjhVUDkkkgADkngV/r+/wDBub/wTNX/AIJv/wDBPbwZbeONAGlftG/tH/2X8avjw13bCHWNBuNW00f8IB8L7wuizwr8OPCd3HBqmnSNJHaeOtc8cTW0jW95HgA/ayL4ewwRxQw6isUMKJHDFHp6pHFHGoWOONFugqIiqFRFAVVAAAAFPPj0Akf2UeP+n0f/ACJXodfPDdT9T/OgD0T/AIT0f9Ao/wDgaP8A5EpePG476Z/Zh/6/PP8Atn/gL5fl/Zf+mm/zP4Nnzec16L4C6ar9bL+V3QAf8IEP+gqf/AIf/JdKPAQyP+Jqeo/5ch6/9fdehUq9R9R/OgD54IOTwep7H1pMH0P5Gvohup+p/nSUAeeeAgQNVyMc2X/t3XodeeePSQNKwcc3v/tpXneT6n8zQB9D188kHJ4PU9j60AnI5PUdz619DUAfPG0+h/I1/lZf8HJf/BN8/sJ/t4658QfAegHTP2fP2sZNc+LXw7FlamHSPC/jeS+ik+LPw7t9iR29smj+ItTtvFOiWFtFDZWHhXxloekWQkOj3Zj/ANdSvxS/4L0/8E8dP/4KR/sGeOfg9pOnWk3xm8Fxah8Vf2ftUmEUU9t8UPCdgz2vhw3khQW+nfEDRbjVvA+oNNILO0fXLLW5opZ9FtCgB/jeUVc1HTr/AEjUL7SdVsrvTNU0u8utO1LTr+3ltL7T7+yne2vLK9tJ0jntru0uIpILm3mRJYZo3jkRXVgKdABRRRQAUUUUAFfV/wCwb8RfA3wg/bh/Y4+LHxPEB+G3wy/am/Z/+IHj9rqPzbaPwZ4O+K/hPxD4mmnh6TwwaNp97NJA4Mc6xmKRWjdgflCigD/fnsr2z1KztNR067tr/T7+2gvbG+sp4rqzvbO6iSe2u7W5gZ4bi2uIXSaCeJ3ilidZI2ZWBNLX9e0XwtoWteJ/Euq6foXh3w7pOo67r+t6vdwWGlaPoukWc1/qmq6nfXLx21lp+n2NvPd3l3cSJDb28Mk0rqiMw/yjf+Ca3/B0t+3d/wAE/vhT4d+AHizwx4H/AGq/gr4I0+DR/h9pPxO1PX9B+IfgLQLKMRab4T8PfEfRpL5rvwjpcOYNJ0jxV4a8S3WiWMdno+g6ppWg2FnpMPOf8FOf+DnX9uv/AIKN/DDXPgDpuheCf2YfgJ4ttzZeOvB/wtvdc1bxj8Q9Jdw83hzxn8Rdalgu5vClwUjW+0Dwzofha21qDz7DxHJrelXL6eAD8J/2l/Gfhb4j/tHfH/4h+BoDa+CfHnxs+KnjLwfbG2+xm38LeJ/HWu634fg+ybU+y+TpN9aR/ZtieRt8rYu3aP8AWK/4Nivil8OfiT/wRd/ZL034f3GnJefCyH4k/DP4h6HZSRNc+H/iBpvxO8W+ItUj1WKL/UXviXS/E2i+OoxJ+8m0/wAVWVw53ysB/kEV+nP/AATM/wCCt/7Yf/BKT4j6341/Zn8U6Le+FfGq2MPxK+DnxC0+98QfC34gRaaZP7OvNV0ix1PR9V0jxFpaTzppfinwzrGja5bwTTafc3d7o9zeaXcgH+1vX+YJ/wAHnHxS+HPjX/gpX8IfAnhO407UfGvwg/Zb8LeHPife2UkUlxpereJvHXjvxv4c8IaoU/eRX2meF9d0/wAULDJwlj42s3TDSyAej/Gv/g9S/ba8a/Dm98MfBj9mT4E/BHx5qenS2E3xMvtb8UfFG40WeeFo21fwn4T1i20DQLPVLaQiawXxUPGmkROoW+0nUUytfx8/En4k+PfjD4+8YfFP4peLte8e/EXx/wCIdT8V+NPGXifUJ9V1/wASeIdZupLzUtV1S/uWaWe5ubiVmPKxxJshgjjhjjjUA/sR/wCDKT4p/Djwv+2n+1T8LfEVzp1j8Rvip8ANB1H4bzXs0cF1qtl8PfGX2/xx4b0gyFfteoXNjr2j+JJdOhLXL6V4T1LUViNtpd3JD/pU1/grfCD4v/E74BfE3wT8Zvgz438QfDj4o/DnXrPxN4K8beF71rDWtA1myLeXc20wDxTQTwvNZ6hp95Fcadqum3N3pmp2l3p95dW0v9ePwx/4PVv25vDHw8svDvxL/Zj/AGdfil8QNPsFsl+I1vfeN/AkGsXENuIodV8ReDdJ1DUtMm1GeYfadSTw5f8AhbSp3Z49O0zSYiiRgH9JX/B298U/hz4H/wCCOfxN8C+LrnTv+Ey+M/xY+CnhH4U6fPJE2pSeJPDPxD0T4k+IdU0+2Ie48jT/AAJ4O8T2N/fRqkFt/bVraTzpJqVtBc/5PtfoH/wUS/4Kcftb/wDBUH4v2nxd/ao8cWmrP4fs7vSvh98OvCVhL4d+GHwx0W/nS5vtN8FeGHvdRmhm1KeG3fWPEGuanrnivXFs9Ng1jXr600nSrex/PygAooooAKKKKACiir2l6XqWt6np2jaNYXmq6vq99aaZpWl6dbTXuoalqV/cR2tjYWNnbpJcXd5eXMsVvbW0EbzTzSJFEjOyqQD+jn/g2H/4Jm/8N9f8FAtD+JPxB8PjVP2df2P5NA+L/wARlvrYT6P4q8fLfzSfB74cXKyLJb3MWr+I9Ku/F2uWFzDPY6h4V8Ea3ot8IzrVoZP9amvw+/4I7f8ABN/Tv+CY3/BPv4LfBPVdOs4vjX4zivPi1+0Vq9uIZZrz4seMLDRpL7w6L2IsLnTPh3otro/gHTHhk+yXn/CP3WuQwxXGt3hf9Osn1P5mgD6Hr55IOTwep7H1oBORyeo7n1r6GoA+eMH0P5GvRPAQIGq5GObL/wBu69Drzzx6SBpWDjm9/wDbSgD0OlXqPqP51875PqfzNKCcjk9R3PrQB9Dt1P1P86SvPT49GT/xKj1P/L6PX/r0pP8AhPR/0Cj/AOBo/wDkSgA8e9NK+t7/ACtK86r0bjxuO+mf2Yf+vzz/ALZ/4C+X5f2X/ppv8z+DZ8yf8IEP+gqf/AIf/JdAHna9R9R/OvoevPB4CAIP9qnj/pyH/wAl0Hx6ASP7KPH/AE+j/wCRKAPQ6888e9NK+t7/ACtKP+E9H/QKP/gaP/kSl48bjvpn9mH/AK/PP+2f+Avl+X9l/wCmm/zP4NnzAH+XH/wdN/8ABOD/AIZR/bKg/ar+HOg/Yvgl+2Hd6t4l1VbC28vTfCnx9sBHdfEXSZPKVo7WPx5FcW/xG0xriVJNR1jUfHMFlAlloIC/y21/tP8A/BU//gmr4Y/4KMfsRfGX9mfVtQsLfxbrOjN4r+D3iPULALH4R+MnhOC5v/AmtG5E80tnp97etP4X8SzW8b3EnhDxD4gtIR5lypH+MR448FeK/hr408XfDvx3oWoeF/G/gPxNrvg3xh4a1aE22qeH/FHhnVLrRde0TUbckmG+0vVbK6srqLJ2TwOoJAyQDl6KKKACiiigAqzZ2d3qN5a6fp9rcX1/fXMFnZWVpDJc3d5d3UqwW1ra28KvLPcXEzpFDDEjSSyOqIrMwBrV9VfsJ+OvA3wv/bd/Y5+JfxQe1j+Gnw8/ao/Z88c/EOS+iSeyTwP4T+LXhHXvFj3kMoMctqug2F+1xHICjwh1cFSRQB/eF/wTJ/4M9/2c9N+DPhL4kf8ABSfVfHvj740+M9Esdc1L4G+BfF9z4F8BfCuHVLdbqDwx4g8Q+HUj8W+MPG2mRSQpr1/pXiDQfDOnamb7RtPsfEFtZQeJNR5H/gqz/wAGg/wMsPgj40+M3/BM/UfiD4c+KfgDQ9Q8Szfs7eNvE1x498M/E7SNHtZb2/0PwB4i1eE+L/D3j6a1ink0O113WvEuieJNQjtNCK+G3vG1mP8Aurtbq2vba3vbO4gu7O7ghurS6tpUntrm2uI1lguLeeJmjmgmidJIpY2ZJI2V0YqQTU1nWNJ8PaPquv69qVjo+h6Hpt9rGs6vqd1DY6bpWlabay3uo6jqF7cPHb2djY2kM1zd3U8iQ28EUksrqiMwAP8AAjZWRmR1KujFWVgQyspIZWB5BBBBB5BGDX9TH/BAL/g3Wuf+Cpuh63+0x+0f4z8W/C39krwx4nuvCHh6z8Dpp1p8RPjV4r0dIZfENr4e1nXNP1XTPC/grw3LcW2naz4nbRdautX1dtQ8O6HFY3ularq2lfzn/tJ+K/CPjz9or4+eOPh/bJZeA/GXxp+KXivwTZpbm0S08I+IfHGu6v4btktSqG2SDRryziW3KKYQojKqVwP9Y/8A4NiviJ8OfHv/AARZ/ZGsPh7Pp63Hw4h+J/w++IOj2ckT3WhfESx+KvjHxDrcWrRxcwX/AIgsPEmkeNokk/eS6X4p064b/XAAA+U/jT/waAf8EnPH3w61Dw38KLD42fAfx+thMuhfErRPijrvj0x6utsUsrnxL4Q+IEus6JrWkC6CXGpaXocnhC/u4vMt7HXdJLRzRf5wP/BQL9hj4yf8E5f2q/iZ+yh8b4bOfxV4CvbW60XxRo6XC+HPiB4I1yAX/hLx34ae5VZjpWv6Y6tNaSlrrRdYt9V8P6iV1PSL2NP9yGv8wb/g87+Inw58Wf8ABS74PeDvCs+n3/jn4XfsqeEtA+J93ZSxST6ZqPiHx98QfGXhbwrqwQ+ZDqOn+GddtPEywy8jTPGemyqcSkKAfgX/AMEyf+CdXxl/4Kh/tY+Df2W/g5cWWgS6lY3/AIt+IvxD1i0nvtB+F/wy0Ceyh8R+NdWsrWSC41KWK51LS9E0DRYbi0bXfFGtaJpMuoaVaXdzq1j/AKLvww/4NCf+CRHg34eWXhXx74d+OHxe8aiwEWq/E/X/AIv+IfCmrz6nJCouLzSfDXgX+wPCGmWUdxvk0zTtQ0jXpraAxwajqWryI9zL/P5/wZNfEL4eaF+19+1/8OdcutOtPiT8QfgJ4Q1f4fi78mK91LQ/Avje4fx5pOlTylZJrhz4l8K6xcabbM01xY6Jc6i0TQaRNLD/AKSdAH+Tf/wX6/4N+dZ/4JNXvhT44fBPxj4l+Kv7IPxK8Tv4PsdT8Xw2D/ED4R+OZrK71XSvCHjjUNGstM0jxFpPiTTdO1W68LeL9P0jRQ8+lahoWt6TZ30ekaj4k/mfr/Wc/wCDsv4h/Dvwf/wRi+NfhXxlc6evin4q/Er4FeD/AIUWVy8P2668Z6P8VPDXxC1abTI3JmD2Xw88GeNZLqeBfktZXtpXRLzD/wCTHQAUUUUAFFFFABX9ZH/Bpj/wTLP7W/7a1z+178S/D/274GfsXXmkeI9EXULbfpni79ojUlkuvhxpUQlRY7uP4d28Fx8StTe2laXTNdsfh/DeQSWWvMD/ACveCfBnin4j+MvCfw98DaHf+JvGvjrxLofg/wAI+HNLhNxqev8AibxLqdro2haNp8AIMt7qeqXtrZW0eQHmmQEgHI/2bv8AglH+yB4Q/wCCaX7DPwW/ZY8PaTY33ibw/o58U/F/xXY3CoPG/wAZfFsdvqPj3xEZTZLNcWEF8sHhrwybndc2vg7w94d0+Z3ezLEA/Rjx700r63v8rSvOq9G48bjvpn9mH/r88/7Z/wCAvl+X9l/6ab/M/g2fMn/CBD/oKn/wCH/yXQB52vUfUfzr6HrzweAgCD/ap4/6ch/8l0Hx6ASP7KPH/T6P/kSgD0OvPPHvTSvre/ytKP8AhPR/0Cj/AOBo/wDkSl48bjvpn9mH/r88/wC2f+Avl+X9l/6ab/M/g2fMAec0q9R9R/OvRP8AhAh/0FT/AOAQ/wDkulHgIZH/ABNT1H/LkPX/AK+6APOm6n6n+dJTiDk8Hqex9aTB9D+RoA9E8BdNV+tl/K7r0OvPPAQIGq5GObL/ANu69DoAK+eG6n6n+dfQ9fPJByeD1PY+tADa9F8BdNV+tl/K7rzvB9D+Rr0TwECBquRjmy/9u6APQ6/zUP8Ag8G/4Jmf8KO/aN8I/wDBQ74XeH/s3wx/aeu4fB/xpj0612WHhv8AaB0HSHk07XrlYljgtYvix4L0qS+IjjZrjxX4L8W6vqNw174it1k/0r6+Nf8AgoH+xj8Pf+Cgf7H3xy/ZM+JCQQaT8V/B13YaB4hktlurnwT4+0t49Z8AeOtPT5ZDdeFPFtjpOrSW8UkX9p2EF7o9w5stRuo3AP8ADZor0340fCDx9+z/APFv4kfBD4paJN4c+Inwo8aeIvAXjLRp9x+x694Z1O40u/8As8xVFu7C4ltjdabqEINtqOnz2t/avJbXEUjeZUAFFFFABRRRQB/Uj/wTS/4OsP21f2CvhH4b/Z++J3w+8JftdfCHwHpkGifDlfHHinW/BPxR8F+H7KPydM8JW3xHsdN8U2+t+EtFgCWuhaf4j8Jarq2jafFbaNp2vW+g2GmaVY83/wAFQP8Ag6P/AG1f+CiPwp8Qfs9+C/BPhL9k/wCBXjazk0z4h6D4A8Q6z4u+InxC0K44vPCXiX4k6lZ6Alv4N1FFji1fRPDHhPw5ca7atd6Rr+qar4fv7zRpf5kqKACv1W/4Jc/8FiP2v/8Agk14/wBf8Sfs861oPiP4feO5LBviZ8EPiLa6hq3w38aS6crQ2WtLBpmo6Xq/hrxfp1rLNbaf4n8P6lZ3LwtFZ63a67pMCaYfypr+jv8A4IY/8G93xN/4K2/8JH8ZPiB471D4GfsleBvET+Er/wAb6XpFvq/jv4meMLW1tr7VfCnw2sNTZNHsbXQrO9sX8ReNdaj1DTtNvb+y0rS9C8RXy60mhAH6XfGr/g9k/ao8XfDq+8O/A79jz4QfBn4iahp8ll/wsfxR8RPEPxdtNGnng8qTVvD/AIJfwn4CsI9TtZGa50xPEeq+J9IhnWEanpOr2yTW9x/Gt8Vvir8Rvjl8SPGvxf8Ai74x1z4g/Ez4jeItS8V+NvGfiS8a+1rxDr+rTtcXt/eTsFRQWYRW1pbxwWVhaRQWNhbW1lbwQR/6Qnxr/wCDLH9gfX/h1f6d8Af2hP2m/ht8U7awlGg+J/iPrPw++Jvgy+1FLbEI8U+FNH+H/wAP9Ve3uLlEMtx4f8TaObNZriVLG9VYLVP8979s/wDY++Nf7Bv7SXxN/Za/aB0K30X4k/DHV4rK8n0yeW98O+JdE1G0h1Tw34x8KanNb2kmp+GPFGi3dnq2k3MtraXkUVw9hqtjp2r2eoadaAHm/wAB/jv8Xf2ZPi94D+PHwH8d658Nfiz8NNdg8ReDPGXh6dItQ0vUIkkt5opYZ457LU9J1SxnutJ13Q9Utb3Rte0W+v8ARtYsb3TL66tZv7I/hj/we4ftKaB8O7LRPix+xL8IfiP8S7SwFrN4/wDC3xT8U/DXw7qd3FAsUOp3/gC58I+PJkuJpV+06jBpnjHTrKeV5E0+20qDyoYv4gaKAP0v/wCCmn/BWD9rf/gqz8V9K+I/7SviPSLTw94Oi1Gy+F/wg8C2d5o3wz+Gmnaq9s2pnQtLvr/VNS1HXdaNlZNr/inxBqeqa5qf2Ozs1ubTR9P0vSbD80KKKACiiigAoor1X4GfBb4h/tG/GT4YfAb4TaFN4l+JXxe8ceG/h94L0WHcq3ev+J9Ut9LsWu5wjrZaZaPcfbdW1KYC10zTLe71C7eO1tppFAP6uv8Ag0r/AOCcH/C5vj/4s/b/APiZoP2j4cfs4XU/g/4Mx6hbb7LxD8dtc0lX1TX7dZVeC6i+F3g7VEuFDxgweKfGPhnVdPuUvfDk6p/os18kfsJfsgeAv2EP2Tfgr+yx8OYoptH+FnhG007WddS2Ftc+MvG+ovJq/jrxtfplnW78VeK77VdYEDySDT7W5tdKt2WzsLaNPrjB9D+RoA9E8BdNV+tl/K7r0OvPPAQIGq5GObL/ANu69DoAK+eG6n6n+dfQ9fPJByeD1PY+tADa9F8BdNV+tl/K7rzvB9D+Rr0TwECBquRjmy/9u6APQ6Veo+o/nSUq9R9R/OgAbqfqf50lK3U/U/zpKAPPPHpIGlYOOb3/ANtK87yfU/ma9E8e9NK+t7/K0rzqgBwJyOT1Hc+tfQ1fPC9R9R/OvoegArzzx6SBpWDjm9/9tK9Drzzx700r63v8rSgDzvJ9T+ZpQTkcnqO59abSr1H1H86AP4Vv+DyP/gmZ/wAI74u+H3/BTv4V+H9uj+N30T4OftOx6ba/JaeL9OsTafCf4l6iIldgniHQLB/hzruozm3s7W88OeALRBLqHiCVm/g/r/ds/av/AGafhr+2N+zf8Zv2Yfi9pw1L4e/GrwJrXgnXdkcUl5pUl/CJdF8TaOZ1aKHxB4R1630vxR4du3VhZ65pGn3W0+Tg/wCI9+1x+zF8S/2Mf2lvjR+y58XrA2Pj/wCCvjrV/BusSJDLDZa1aWsi3Xh/xZo6zgSyeH/GXhy60nxX4enkAe40TWLCd1VpGUAHzpRRRQAUUUUAFFFFABX+wX/wbM658O9a/wCCKX7GEXw7lsDFoekfE7Q/GdraGEXdh8Q7f4xePrzxbFrEUYEsV/e3l9HrFv8AagJZ9F1PSbuLdZ3Fq7f4+lftj/wR8/4LmftPf8EhPFHibTvAWi6P8Y/2ffiHqltrXxE+AfjDV7/RNMuvEFrbQWKeMfAnimytdUn8CeNZtNtrXSNS1QaJr+j65pVrY2+veHdTuNH0C80gA/2P6/zGf+D0nXPh3qX/AAUi+BGleHJbCf4geHv2SPDFn8SHsTE0trHf/E74m6r4M0zV2iGU1aLSby91MQ3B+1Lour6LMQLS4syfvP42f8Hu9rd/Di7s/wBnf9hi+0X4salpssNprvxe+LFprfgXwlqsiyBL4+HvCPhjSdb8c21ufLZbN9e8CGV2ZpLgJD5Vz/DR+0L+0F8Xv2qfjT8RP2hPjz401L4g/Fr4p+IZ/EvjLxVqnkxy319JFDa2tpZ2dtHDZaVo2j6ba2WjaBomnW9tpmiaJp9hpOm21vY2cEKAHjNFFFABRRRQAUUUUAFf3Ef8GiH/AATg/tvxN48/4KUfE7Qc6Z4Tk1n4Q/s1x6ja/Lc+Jr6zFp8VfiRp/mqjbNF0a9T4d6HqFu09rc3Wu+P7OQRXuixMv8fv7J37NPxG/bF/aP8Ag7+zL8KLI3njn4xeNtK8JaZM8Ms1noljOz3fiHxXqyw5lXQvB/hy01bxTr0sYMkOj6ReyorOiqf9mz9l/wDZ2+HX7Jf7Pvwg/Zu+E+nDTfAHwd8EaL4L0FWSJLvUTp0O/VfEOrNCqRz694p1qbUfEniC8VF+263qt/dsA0xFAH39RRRQB5549JA0rBxze/8AtpXneT6n8zXonj3ppX1vf5WledUAOBORyeo7n1r6Gr54XqPqP519D0AFeeePSQNKwcc3v/tpXodeeePemlfW9/laUAed5PqfzNKCcjk9R3PrTaVeo+o/nQB6KfHoyf8AiVHqf+X0ev8A16Un/Cej/oFH/wADR/8AIledt1P1P86SgD0bjxuO+mf2Yf8Ar88/7Z/4C+X5f2X/AKab/M/g2fMn/CBD/oKn/wAAh/8AJdHgLpqv1sv5Xdeh0AeeDwEAQf7VPH/TkP8A5LoPj0Akf2UeP+n0f/Ileh188N1P1P8AOgD0T/hPR/0Cj/4Gj/5EpePG476Z/Zh/6/PP+2f+Avl+X9l/6ab/ADP4Nnzec16L4C6ar9bL+V3QAf8ACBD/AKCp/wDAIf8AyXQPAQBB/tU8f9OQ/wDkuvQ6KAPPD49AJH9lHj/p9H/yJX8Mn/B4R/wT3i+IXhD4f/8ABSz4XeFfs/iH4eQaR8Iv2lE05fOk1PwNqWom3+F3xEv1ht7dfN8K+ItQl8B61qExub2707xR4Lt8w6Z4Zdk/tXbqfqf515v8YPhP4E+PHwq+IvwW+KGh2/iX4d/FTwZ4i8B+M9DuQAmo+HvE+l3Ok6lDHLgva3a29y81jfQ7bmwvY7e9tXjuIIpFAP8ADeor7F/b8/Y58efsD/tc/Gr9lj4gLcXN98M/Fdxb+GvEMtubeDxr4A1ZE1jwF41s1GYfK8R+Fr3TL67t4JJl0vVW1HRppPtem3KJ8dUAFFFFABRRRQAUUUUAFFFFABRRRQAUUUUAFFFfbP8AwTq/Yn8f/wDBQ79sr4G/smfD4XNrdfE7xbbxeLfEsFv9oh8DfDfRUfWviF44uww+z7fDnhWy1K70+3uZIY9W1s6VocUou9UtkcA/tU/4M+/+CWkujfDfx1/wUt+KWlmx1z4ljWfhN+zbBqOn+bLafD/SNRW2+JfxGshNIqxt4r8UaavgbRb2IQ3ttpvhPxdGGl0zxMhk/uAHgIAg/wBqnj/pyH/yXUPwc+EngH4B/Cf4b/BL4V6BbeF/hv8ACfwV4b+H/gjw/aAeVpfhrwrpVro+lWzSYD3Nz9ltI5L29m3XN9ePPeXUklxPLI3pNAHnh8egEj+yjx/0+j/5Eo/4T0f9Ao/+Bo/+RK87bqfqf50lAHo3Hjcd9M/sw/8AX55/2z/wF8vy/sv/AE03+Z/Bs+ZP+ECH/QVP/gEP/kujwF01X62X8ruvQ6APPB4CAIP9qnj/AKch/wDJdB8egEj+yjx/0+j/AORK9Dr54bqfqf50Aeif8J6P+gUf/A0f/IlLx43HfTP7MP8A1+ef9s/8BfL8v7L/ANNN/mfwbPm85r0XwF01X62X8rugA/4QIf8AQVP/AIBD/wCS6UeAhkf8TU9R/wAuQ9f+vuvQqVeo+o/nQB88EHJ4PU9j60mD6H8jX0Q3U/U/zpKAPPPAQIGq5GObL/27r0OvPPHpIGlYOOb3/wBtK87yfU/maAPoevnkg5PB6nsfWgE5HJ6jufWvoagD54wfQ/ka9E8BAgarkY5sv/buvQ6888ekgaVg45vf/bSgD0OivnjJ9T+ZpQTkcnqO59aAAg5PB6nsfWkwfQ/ka+h6KAP4jv8Ag7E/4JnyfHv9mPR/+CgHww0E3XxP/ZUt7Pw58XoNPtd9/wCJf2e/EWqXUi6zOIkkuLqX4T+ML4awqIiRWnhPxb431jUJxb6Jbqn+cBX+8Z8bPCXhrx94S1LwL4z0Ww8SeEPGfh/xN4U8VeHdVgW60vXvDniHTl0nW9G1G2f5bix1PTbu5sruFuJIJpEPWv8AGJ/4Kr/sG+Jf+CcX7b3xh/Zq1SO/uPBunap/wmPwa8SX6sW8W/BzxZPdXvgnVTcFUS71DTIIrvwl4lmiRIR4s8N69DCvkxRswB+dNFFFABRRRQAUUUUAFFFFABRRRQAUUUUAFf6W/wDwZ8/8E20+BP7N/jf9vX4l+HxbfFX9p6xtfDvwnGoW2zUPDP7PmkarLcNqNv5qpPav8V/FulQ67KjI8V54W8KeBtVsZ/J1W4Rv4ev+CQ//AAT48Tf8FM/28Pgz+zHpsOo2/gS81Q+Ofjj4l09XV/CPwU8HXFpe+N9SF0quLLUtbSaw8FeGLmRHhXxd4p0BZ0+ztMy/7LV94T8NeAfCXgPwL4L0XT/DPg/wX4fs/CfhTw7pFulnpWgeG/Dum6XpGh6LptrGBHbafpemWdrZWcCAJDbwRxrwooA9kor54yfU/maUE5HJ6jufWgAIOTwep7H1pMH0P5GvoeigDzzwECBquRjmy/8AbuvQ6888ekgaVg45vf8A20rzvJ9T+ZoA+h6+eSDk8Hqex9aATkcnqO59a+hqAPnjB9D+Rr0TwECBquRjmy/9u69Drzzx6SBpWDjm9/8AbSgD0OlXqPqP51875PqfzNKCcjk9R3PrQB9Dt1P1P86SvPT49GT/AMSo9T/y+j1/69KT/hPR/wBAo/8AgaP/AJEoAPHvTSvre/ytK86r0bjxuO+mf2Yf+vzz/tn/AIC+X5f2X/ppv8z+DZ8yf8IEP+gqf/AIf/JdAHna9R9R/OvoevPB4CAIP9qnj/pyH/yXQfHoBI/so8f9Po/+RKAPQ6888e9NK+t7/K0o/wCE9H/QKP8A4Gj/AORKXjxuO+mf2Yf+vzz/ALZ/4C+X5f2X/ppv8z+DZ8wB5zSr1H1H869E/wCECH/QVP8A4BD/AOS6B4CAIP8Aap4/6ch/8l0Aeh0V54fHoBI/so8f9Po/+RKP+E9H/QKP/gaP/kSgA8e9NK+t7/K0r+Tb/g6S/wCCcH/DWv7Fy/tP/DrQftvxw/Y6tdY8XXS2Ftv1PxZ8CL4RXHxM0J/KVZLuXwWLS1+I2lG4kkWw03R/GVnp1u174jYP/WVx43HfTP7MP/X55/2z/wABfL8v7L/003+Z/Bs+apffDOx1SyvNM1K6t9Q07UbW4sb+wvdLiurO9sruF7e6tLu2muXhuLa5gkkhnglR4poneORWRiCAf4LlFfsZ/wAF0f8AgmxqX/BMX/goB8S/g7pGn3KfBH4gbvi9+zxrDxS/ZZ/hl4s1C+I8Ki4d5g+o/DjxDbax4IvI5riS+ubHSNI1+5jih1+03/jnQAUUUUAFFFFABRRRQAUUUUAFFFfsH/wQ4/4J3z/8FHv2+/hl8MfEmj3N/wDAv4bzwfF79oW6XzIbSb4ceFNRsnTwY16q4hvviTr82l+C4khkW/t9K1PXNds45F0K5KAH94v/AAaif8Ey/wDhjf8AYb/4ai+JXh/7B8ev207XRPG0aaha+Xqvg/4CWKTXHwq8OKJkaWzm8YxXt38S9Y+zyRC+sde8H2Gp2y33hlNn9Mvj3ppX1vf5WlVrLxhZabZ2mnad4ft7DT7C1gsrGxs54ra0srO1iSC1tLW2hskht7a3gjSGCCJEiiiRY41VVAFrjxuO+mf2Yf8Ar88/7Z/4C+X5f2X/AKab/M/g2fMAec0q9R9R/OvRP+ECH/QVP/gEP/kugeAgCD/ap4/6ch/8l0Aeh0V54fHoBI/so8f9Po/+RKP+E9H/AECj/wCBo/8AkSgA8e9NK+t7/K0rzqvRuPG476Z/Zh/6/PP+2f8AgL5fl/Zf+mm/zP4NnzJ/wgQ/6Cp/8Ah/8l0Aedr1H1H86+h688HgIAg/2qeP+nIf/JdB8egEj+yjx/0+j/5EoA9Drzzx700r63v8rSj/AIT0f9Ao/wDgaP8A5EpePG476Z/Zh/6/PP8Atn/gL5fl/Zf+mm/zP4NnzAHnNKvUfUfzr0T/AIQIf9BU/wDgEP8A5LpR4CGR/wATU9R/y5D1/wCvugDzpup+p/nSU4g5PB6nsfWkwfQ/kaAPRPAXTVfrZfyu69DrzzwECBquRjmy/wDbuvQ6ACvnhup+p/nX0PXzyQcng9T2PrQA2vRfAXTVfrZfyu687wfQ/ka9E8BAgarkY5sv/bugD0OiiigD54bqfqf50lOIOTwep7H1pMH0P5GgD0TwF01X62X8ruvQ6888BAgarkY5sv8A27r0OgD+cz/g5p/4Jmf8PBP+CfXiLxt8P/D/APav7Rv7JCa78ZPhYLK187WPFHhCDT4n+Lvw0tfLWS4uH8SeF9Lt/Emiadawy3mp+MvBfhjSbYxR6nds/wDkhdOtf795AIIIBBBBBGQQeCCDwQR1Ff4+n/Bw7/wThP8AwT5/b48V3PgjQjpf7PX7STav8YvgwbS28nSNAuNQ1EH4i/DS0KKkEP8Awgvii+E2lafCCtj4J8SeDUeSSdpyAD8G6KKKACiiigAooooAKKKKADr0r/Vl/wCDcj/gnB/wwP8AsF+HfFPjvQf7L/aF/alTRfi/8VReW3k6v4b8OXFhI3wr+G13vVJ4G8LeGdSn1zWNPuYo7nTfGXi/xTp0zSxWVsV/iq/4Ns/+CZn/AA8U/wCChHhXVfHvh/8AtX9nD9lttG+NPxo+2W3naN4k1Kx1Jj8L/hfeb1eCceOfFWnyX+r6bcL5Wo+BvCnjS23xzvb7v9VnbjhVwBwABwAOAB7AdKAEr0XwF01X62X8ruvO8H0P5GvRPAQIGq5GObL/ANu6APQ6KKKAPnhup+p/nSU4g5PB6nsfWkwfQ/kaAPRPAXTVfrZfyu69DrzzwECBquRjmy/9u69DoAK+eG6n6n+dfQ9fPJByeD1PY+tADa9F8BdNV+tl/K7rzvB9D+Rr0TwECBquRjmy/wDbugD0OlXqPqP50lKvUfUfzoAG6n6n+dJSt1P1P86SgDzzx6SBpWDjm9/9tK87yfU/ma9E8e9NK+t7/K0rzqgBwJyOT1Hc+tfQ1fPC9R9R/OvoegArzzx6SBpWDjm9/wDbSvQ6888e9NK+t7/K0oA87yfU/maUE5HJ6jufWm0q9R9R/OgD6HooooA888ekgaVg45vf/bSvO8n1P5mvRPHvTSvre/ytK86oAcCcjk9R3PrX5mf8F/v+CakH/BTD/gnt8RPAXhTRYr/9oL4Ni6+M/wCzvdRwodRvvGvhnTbr+2vh7DNhZGtfif4XbUfC0NpJcQaevimTwnrd/vXQYgv6ZL1H1H86+h6AP8BW4t57See1uoZba6tppLe5t7iN4Z7eeF2jmhmikCyRSxSK0ckbqro6srAMCKhr+oT/AIOpP+CZn/DEn7eV3+0H8OPD39nfs+/toXGvfEnR00+18vSfCHxotrm3n+L/AINCwr5NlBq+panZfETQYW+zQNbeK9W0fSbc2nhacx/y90AFFFFABRRRQAVPbW1ze3NvZ2cE11d3c8Vta2ttE89xc3M8ixQQQQxq0k000rrHFFGrPI7KiKWIFQV/TL/wbAf8E4P+Gxv23YP2hPiHoP2/4Efsd3Gh+P71b+28zS/Fvxoup5p/hT4VxKoivIdAvNOvPiHrUcZnjg/4RvQdL1S3+yeJ4S4B/bn/AMEK/wDgnTb/APBOH9gr4d/D7xLpMNl8dvisLb4v/tAXbRp9utvHHibT7Q6d4GlnAd/snw28NppvhR7aO4msJPENr4l1yxEY12YH+hivnheo+o/nX0PQAV5549JA0rBxze/+2leh155496aV9b3+VpQB53k+p/M0oJyOT1Hc+tNpV6j6j+dAH0PRRRQB5549JA0rBxze/wDtpXneT6n8zXonj3ppX1vf5WledUAOBORyeo7n1r6Gr54XqPqP519D0AFeeePSQNKwcc3v/tpXodeeePemlfW9/laUAed5PqfzNKCcjk9R3PrTaVeo+o/nQB6KfHoyf+JUep/5fR6/9elJ/wAJ6P8AoFH/AMDR/wDIledt1P1P86SgD0bjxuO+mf2Yf+vzz/tn/gL5fl/Zf+mm/wAz+DZ8yf8ACBD/AKCp/wDAIf8AyXR4C6ar9bL+V3XodAHng8BAEH+1Tx/05D/5LoPj0Akf2UeP+n0f/Ileh188N1P1P86APRP+E9H/AECj/wCBo/8AkSl48bjvpn9mH/r88/7Z/wCAvl+X9l/6ab/M/g2fN5zXovgLpqv1sv5XdAB/wgQ/6Cp/8Ah/8l0DwEAQf7VPH/TkP/kuvQ6KAPPD49AJH9lHj/p9H/yJR/wno/6BR/8AA0f/ACJXnbdT9T/OkoA9G48bjvpn9mH/AK/PP+2f+Avl+X9l/wCmm/zP4NnzJ/wgQ/6Cp/8AAIf/ACXR4C6ar9bL+V3XodAHng8BAEH+1Tx/05D/AOS6D49AJH9lHj/p9H/yJXodfPDdT9T/ADoA/Pj/AILI/sVeHv8Agpz+wV8Xv2cJtDsYPiVbWi/Eb4CeI727iH/CNfGfwba3tx4VY3Utqq2emeKrW61XwF4juTv+zeHPFWqXcUbXdtasn+Nr4h8P634T1/XPCvibSr/QvEnhrWNS8P8AiDQ9UtpbPU9G1vRr2fTtV0rUbOZUmtb7T7+2ntLu2lRZYLiGSKRQykD/AHUK/wA2n/g66/4Juv8As6/tTaP+298NfD5tfg/+1hfzWvxD/s+12ab4V/aJ0ywku9Za4MaLDar8VvD1lJ4ztAxe41HxPo3xEvpWRDboQD+S2iiigAooooA3PC/hnxB418S+HvBvhLR9Q8ReKvFmuaT4a8NaBpNtLe6rrniDXb+30vRtH0yzhVprvUNS1G6trKztolaSe4mjiRSzAV/swf8ABIr/AIJj6H/wTf8A2FvhB+zwt3YH4jyacPH/AMdtc0+zjnTxD8Z/GFpZXXi90vo7lBqGmeGUt9O8DeHL3yoWufDPhbR7iaFLqa4LfxI/8Ghf/BM9P2j/ANrHxF+3d8TdBF58JP2Qru1svhpDqFt5mn+KP2jNf0959Iu4PMR4LmP4TeGbhvFtwv7u4sPFmvfDvUrV2+y3KL/pxUAeeDwEAQf7VPH/AE5D/wCS6D49AJH9lHj/AKfR/wDIleh188N1P1P86APRP+E9H/QKP/gaP/kSl48bjvpn9mH/AK/PP+2f+Avl+X9l/wCmm/zP4Nnzec16L4C6ar9bL+V3QAf8IEP+gqf/AACH/wAl0DwEAQf7VPH/AE5D/wCS69DooA88Pj0Akf2UeP8Ap9H/AMiUf8J6P+gUf/A0f/Iledt1P1P86SgD0bjxuO+mf2Yf+vzz/tn/AIC+X5f2X/ppv8z+DZ8yf8IEP+gqf/AIf/JdHgLpqv1sv5Xdeh0AeeDwEAQf7VPH/TkP/kug+PQCR/ZR4/6fR/8AIleh188N1P1P86APRP8AhPR/0Cj/AOBo/wDkSl48bjvpn9mH/r88/wC2f+Avl+X9l/6ab/M/g2fN5zXovgLpqv1sv5XdAB/wgQ/6Cp/8Ah/8l0o8BDI/4mp6j/lyHr/1916FSr1H1H86APngg5PB6nsfWkwfQ/ka+iG6n6n+dJQB554CBA1XIxzZf+3deh15549JA0rBxze/+2led5PqfzNAH0PXzyQcng9T2PrQCcjk9R3PrX0NQB88YPofyNeieAgQNVyMc2X/ALd16HXnnj0kDSsHHN7/AO2lAHodFfPGT6n8zSgnI5PUdz60ABByeD1PY+tJg+h/I19D0UAeeeAgQNVyMc2X/t3XodeeePSQNKwcc3v/ALaV53k+p/M0AfQ9fPJByeD1PY+tAJyOT1Hc+tfQ1AHzxg+h/I18pft6fsMeCP8Ago1+xR+0L+yd41FlZXXj7wzb3nw98U3kBlbwJ8VvDv2zV/h34yhaNGukg0vxHbWsGuQ2TRXGq+F73XdCMq2+qzhv00rzzx6SBpWDjm9/9tKAP8I74pfDLxx8FviV4/8AhD8TPD974U+Ifww8Y+I/AXjfw1qKBL3Q/FPhTVrvRNc0yfaWR2tNRsriJZomeGdFWaCSSGRHbg6/tG/4O4/+CcH/AArv4seCf+Ci/wAMdB8rwh8Zp9N+Gn7QEWnW2LfSPivoukungfxtdJCpWGHx54Q0mTQNTuSkNtFr3g6ynupptV8WjzP4uaACu9+Fnwy8b/Gn4leAfhF8NdBu/E/xB+Jvi/w94F8F+HrFQbnWPEvijVLXR9HsYy2EiWe+u4VluJWSC2h8y4nkjhikdeCr+5H/AIM5P+CZZ+IHxU8ef8FMPin4f8zwn8HptW+FP7OEOpWuYNW+KetaSsPxE8f2STKvmw+BfCGrReE9IvEWezuNb8Z640EsGreEf3YB/aJ/wSw/Ys8E/wDBPv8AY7+FX7LPgoWl2/w/8M6XL438S20Hkv43+Jmum81f4geMZzIi3LRaz4kur06Rb3bzTaV4eg0fQ1la30uAL+jdeeePSQNKwcc3v/tpXneT6n8zQB9D188kHJ4PU9j60AnI5PUdz619DUAfPGD6H8jXongIEDVcjHNl/wC3deh15549JA0rBxze/wDtpQB6HRXzxk+p/M0oJyOT1Hc+tAAQcng9T2PrSYPofyNfQ9FAHnngIEDVcjHNl/7d16HXnnj0kDSsHHN7/wC2led5PqfzNAH0PXzyQcng9T2PrQCcjk9R3PrX0NQB88YPofyNeieAgQNVyMc2X/t3XodeeePSQNKwcc3v/tpQB6HSr1H1H86+d8n1P5mlBORyeo7n1oA+h26n6n+dJXnp8ejJ/wCJUep/5fR6/wDXpSf8J6P+gUf/AANH/wAiUAHj3ppX1vf5WledV6Nx43HfTP7MP/X55/2z/wABfL8v7L/003+Z/Bs+ZP8AhAh/0FT/AOAQ/wDkugDzteo+o/nX0PXng8BAEH+1Tx/05D/5LoPj0Akf2UeP+n0f/IlAHodeeePemlfW9/laUf8ACej/AKBR/wDA0f8AyJS8eNx30z+zD/1+ef8AbP8AwF8vy/sv/TTf5n8Gz5gDzmlXqPqP516J/wAIEP8AoKn/AMAh/wDJdA8BAEH+1Tx/05D/AOS6APQ6K88Pj0Akf2UeP+n0f/IlH/Cej/oFH/wNH/yJQAePemlfW9/laV51Xo3Hjcd9M/sw/wDX55/2z/wF8vy/sv8A003+Z/Bs+ZP+ECH/AEFT/wCAQ/8AkugDzteo+o/nX0PXng8BAEH+1Tx/05D/AOS6D49AJH9lHj/p9H/yJQB6HXnnj3ppX1vf5WlH/Cej/oFH/wADR/8AIlLx43HfTP7MP/X55/2z/wABfL8v7L/003+Z/Bs+YA+IP2yP2Wfh3+2t+zF8Z/2XvilbrJ4R+L/gvUfDcmoLbx3V54a15DHqPhLxlpUUrLG2s+DfFNjo/ifSRIwhe/0qCK4D28ksb/4y37RPwG+In7L3xz+K37PXxY0ltF+Inwf8b674G8UWYEhtpb3Rbx4IdU0yaWOJrzRNcsvsut6DqKxrFqWi6hYahBmG5jJ/3R/+ECH/AEFT/wCAQ/8Akuv4O/8Ag8L/AOCW8unad4A/4Kb/AAt0s3gtX0H4NftPR6fp/kmO2lYWPwh+J+pGJ5Ayx3D/APCr9e1G5feftHw00+3j2RXEigH8Rf7Mf7O3xK/a1/aC+EH7Nfwg0k6z8R/jR470LwJ4YtmWX7Ja3OsXSpea3q0sMcr2mgeG9LS+8Q+ItQKNHpuh6ZqF/NiK2cj/AG3/ANjL9lT4a/sQ/sufBP8AZV+EtoIPBPwX8DaZ4UtL17eK2vfEmsjzNQ8V+M9XihJiGu+NfFV7rPivWzEfJ/tTWLoQKkAjjX+JD/gz0/4J6w+GbX4gf8FNfil4VN1f6xFrvwb/AGYo9QUQ/ZdKin+xfFz4nad5tvOGk1C8gHwy0LUbZ4ZoINP+JOnzpJBqMD1/eR/wno/6BR/8DR/8iUAHj3ppX1vf5WledV6Nx43HfTP7MP8A1+ef9s/8BfL8v7L/ANNN/mfwbPmT/hAh/wBBU/8AgEP/AJLoA87XqPqP519D154PAQBB/tU8f9OQ/wDkug+PQCR/ZR4/6fR/8iUAeh155496aV9b3+VpR/wno/6BR/8AA0f/ACJS8eNx30z+zD/1+ef9s/8AAXy/L+y/9NN/mfwbPmAPOaVeo+o/nXon/CBD/oKn/wAAh/8AJdA8BAEH+1Tx/wBOQ/8AkugD0OivPD49AJH9lHj/AKfR/wDIlH/Cej/oFH/wNH/yJQAePemlfW9/laV51Xo3Hjcd9M/sw/8AX55/2z/wF8vy/sv/AE03+Z/Bs+ZP+ECH/QVP/gEP/kugDzteo+o/nX0PXng8BAEH+1Tx/wBOQ/8Akug+PQCR/ZR4/wCn0f8AyJQB6HXnnj3ppX1vf5WlH/Cej/oFH/wNH/yJS8eNx30z+zD/ANfnn/bP/AXy/L+y/wDTTf5n8Gz5gDzmlXqPqP516J/wgQ/6Cp/8Ah/8l0o8BDI/4mp6j/lyHr/190AedN1P1P8AOkpxByeD1PY+tJg+h/I0AeieAumq/Wy/ld16HXnvgIHGq8HrZdj/ANPdeh4PofyNACV88N1P1P8AOvojB9D+Rr54IOTwep7H1oAbXovgLpqv1sv5Xded4PofyNei+Agcarwetl2P/T3QB6FRS4PofyNGD6H8jQB87t1P1P8AOkpxByeD1PY+tJg+h/I0AeieAumq/Wy/ld16HXnvgIHGq8HrZdj/ANPdeh4PofyNACV88N1P1P8AOvojB9D+Rr54IOTwep7H1oAbXovgLpqv1sv5Xded4PofyNei+Agcarwetl2P/T3QB6FXjf7Q/wABvhv+1D8DPiv+zx8XtFTxB8NfjJ4G8QeAPGGmny1uDpXiCwls2v8ATLiWOYWOt6PcPBq+g6pHGbjSdasbDUrUrc2sTr7Lg+h/I0YPofyNAHw/8Cvgp8Pf2cPg18MvgL8KNGTQPhz8I/BWgeA/CGlrsaaLR/D2nw2EFzfzpHF9u1fUXik1LWdTlQXGqatd3uo3TPc3Urt6vTiDk8Hqex9aTB9D+RoA9E8BdNV+tl/K7r0OvPfAQONV4PWy7H/p7r0PB9D+RoASvnhup+p/nX0Rg+h/I188EHJ4PU9j60ANr0XwF01X62X8ruvO8H0P5GvRfAQONV4PWy7H/p7oA9CopcH0P5GjB9D+RoA+d26n6n+dJTiDk8Hqex9aTB9D+RoA9E8BdNV+tl/K7r0OvPfAQONV4PWy7H/p7r0PB9D+RoASvnhup+p/nX0Rg+h/I188EHJ4PU9j60ANr0XwF01X62X8ruvO8H0P5GvRfAQONV4PWy7H/p7oA9CpV6j6j+dGD6H8jSgHI4PUdj60Af/Z;" vertex="1" parent="1">
          <mxGeometry x="120" y="230" width="20" height="20" as="geometry" />
        </mxCell>
        <mxCell id="NBTSeYGd2M1Dg0aQ-eE9-13" value="" style="edgeStyle=orthogonalEdgeStyle;rounded=0;orthogonalLoop=1;jettySize=auto;html=1;" edge="1" parent="1" source="NBTSeYGd2M1Dg0aQ-eE9-7" target="NBTSeYGd2M1Dg0aQ-eE9-12">
          <mxGeometry relative="1" as="geometry" />
        </mxCell>
        <mxCell id="NBTSeYGd2M1Dg0aQ-eE9-23" value="" style="edgeStyle=orthogonalEdgeStyle;rounded=0;orthogonalLoop=1;jettySize=auto;html=1;" edge="1" parent="1" source="NBTSeYGd2M1Dg0aQ-eE9-7" target="NBTSeYGd2M1Dg0aQ-eE9-22">
          <mxGeometry relative="1" as="geometry" />
        </mxCell>
        <mxCell id="NBTSeYGd2M1Dg0aQ-eE9-7" value="" style="sketch=0;pointerEvents=1;shadow=0;dashed=0;html=1;strokeColor=none;aspect=fixed;labelPosition=center;verticalLabelPosition=bottom;verticalAlign=top;align=center;outlineConnect=0;shape=mxgraph.vvd.administrator;fillColor=#066A90;" vertex="1" parent="1">
          <mxGeometry x="210" y="180" width="21.5" height="50" as="geometry" />
        </mxCell>
        <mxCell id="NBTSeYGd2M1Dg0aQ-eE9-15" value="" style="edgeStyle=orthogonalEdgeStyle;rounded=0;orthogonalLoop=1;jettySize=auto;html=1;" edge="1" parent="1" source="NBTSeYGd2M1Dg0aQ-eE9-9" target="NBTSeYGd2M1Dg0aQ-eE9-14">
          <mxGeometry relative="1" as="geometry" />
        </mxCell>
        <mxCell id="NBTSeYGd2M1Dg0aQ-eE9-21" value="" style="edgeStyle=orthogonalEdgeStyle;rounded=0;orthogonalLoop=1;jettySize=auto;html=1;" edge="1" parent="1" source="NBTSeYGd2M1Dg0aQ-eE9-9" target="NBTSeYGd2M1Dg0aQ-eE9-20">
          <mxGeometry relative="1" as="geometry" />
        </mxCell>
        <mxCell id="NBTSeYGd2M1Dg0aQ-eE9-9" value="" style="sketch=0;pointerEvents=1;shadow=0;dashed=0;html=1;strokeColor=none;aspect=fixed;labelPosition=center;verticalLabelPosition=bottom;verticalAlign=top;align=center;outlineConnect=0;shape=mxgraph.vvd.administrator;fillColor=#066A90;" vertex="1" parent="1">
          <mxGeometry x="210" y="275.75" width="21.5" height="50" as="geometry" />
        </mxCell>
        <mxCell id="NBTSeYGd2M1Dg0aQ-eE9-19" value="" style="edgeStyle=orthogonalEdgeStyle;rounded=0;orthogonalLoop=1;jettySize=auto;html=1;" edge="1" parent="1" source="NBTSeYGd2M1Dg0aQ-eE9-12" target="NBTSeYGd2M1Dg0aQ-eE9-18">
          <mxGeometry relative="1" as="geometry" />
        </mxCell>
        <mxCell id="NBTSeYGd2M1Dg0aQ-eE9-12" value="" style="sketch=0;outlineConnect=0;fontColor=#232F3E;gradientColor=none;fillColor=#7AA116;strokeColor=none;dashed=0;verticalLabelPosition=bottom;verticalAlign=top;align=center;html=1;fontSize=12;fontStyle=0;aspect=fixed;pointerEvents=1;shape=mxgraph.aws4.policy;" vertex="1" parent="1">
          <mxGeometry x="310" y="185.75" width="44.82" height="38.5" as="geometry" />
        </mxCell>
        <mxCell id="NBTSeYGd2M1Dg0aQ-eE9-17" value="" style="edgeStyle=orthogonalEdgeStyle;rounded=0;orthogonalLoop=1;jettySize=auto;html=1;" edge="1" parent="1" source="NBTSeYGd2M1Dg0aQ-eE9-14" target="NBTSeYGd2M1Dg0aQ-eE9-16">
          <mxGeometry relative="1" as="geometry" />
        </mxCell>
        <mxCell id="NBTSeYGd2M1Dg0aQ-eE9-14" value="" style="sketch=0;outlineConnect=0;fontColor=#232F3E;gradientColor=none;fillColor=#7AA116;strokeColor=none;dashed=0;verticalLabelPosition=bottom;verticalAlign=top;align=center;html=1;fontSize=12;fontStyle=0;aspect=fixed;pointerEvents=1;shape=mxgraph.aws4.policy;" vertex="1" parent="1">
          <mxGeometry x="310" y="281.5" width="44.82" height="38.5" as="geometry" />
        </mxCell>
        <mxCell id="NBTSeYGd2M1Dg0aQ-eE9-27" value="" style="edgeStyle=orthogonalEdgeStyle;rounded=0;orthogonalLoop=1;jettySize=auto;html=1;endArrow=none;dashed=1;dashPattern=1 3;strokeWidth=2;" edge="1" parent="1" source="NBTSeYGd2M1Dg0aQ-eE9-16" target="NBTSeYGd2M1Dg0aQ-eE9-26">
          <mxGeometry relative="1" as="geometry" />
        </mxCell>
        <mxCell id="NBTSeYGd2M1Dg0aQ-eE9-16" value="&lt;font color=&quot;#ffffff&quot;&gt;User 2 Policy&lt;/font&gt;" style="whiteSpace=wrap;html=1;verticalAlign=top;fillColor=#7AA116;strokeColor=none;fontColor=#232F3E;sketch=0;gradientColor=none;dashed=0;fontStyle=0;" vertex="1" parent="1">
          <mxGeometry x="272.41" y="360" width="120" height="30.75" as="geometry" />
        </mxCell>
        <mxCell id="NBTSeYGd2M1Dg0aQ-eE9-18" value="&lt;font color=&quot;#ffffff&quot;&gt;User1 Policy&lt;/font&gt;" style="whiteSpace=wrap;html=1;verticalAlign=top;fillColor=#7AA116;strokeColor=none;fontColor=#232F3E;sketch=0;gradientColor=none;dashed=0;fontStyle=0;" vertex="1" parent="1">
          <mxGeometry x="272.41" y="120" width="120" height="30" as="geometry" />
        </mxCell>
        <mxCell id="NBTSeYGd2M1Dg0aQ-eE9-25" value="" style="edgeStyle=orthogonalEdgeStyle;rounded=0;orthogonalLoop=1;jettySize=auto;html=1;endArrow=none;dashed=1;dashPattern=1 3;strokeWidth=2;" edge="1" parent="1" source="NBTSeYGd2M1Dg0aQ-eE9-20" target="NBTSeYGd2M1Dg0aQ-eE9-24">
          <mxGeometry relative="1" as="geometry" />
        </mxCell>
        <mxCell id="NBTSeYGd2M1Dg0aQ-eE9-20" value="&lt;font color=&quot;#ffffff&quot;&gt;User 2&lt;/font&gt;" style="whiteSpace=wrap;html=1;verticalAlign=top;fillColor=#066A90;strokeColor=none;sketch=0;shadow=0;dashed=0;" vertex="1" parent="1">
          <mxGeometry x="160.75" y="370" width="89.25" height="29.25" as="geometry" />
        </mxCell>
        <mxCell id="NBTSeYGd2M1Dg0aQ-eE9-22" value="&lt;font color=&quot;#ffffff&quot;&gt;User 1&lt;/font&gt;" style="whiteSpace=wrap;html=1;verticalAlign=top;fillColor=#066A90;strokeColor=none;sketch=0;shadow=0;dashed=0;" vertex="1" parent="1">
          <mxGeometry x="160.75" y="120" width="89.25" height="25" as="geometry" />
        </mxCell>
        <mxCell id="NBTSeYGd2M1Dg0aQ-eE9-24" value="&lt;font color=&quot;#ffffff&quot;&gt;n User&amp;nbsp;&lt;/font&gt;" style="whiteSpace=wrap;html=1;verticalAlign=top;fillColor=#066A90;strokeColor=none;sketch=0;shadow=0;dashed=0;" vertex="1" parent="1">
          <mxGeometry x="160.75" y="440" width="89.25" height="29.25" as="geometry" />
        </mxCell>
        <mxCell id="NBTSeYGd2M1Dg0aQ-eE9-26" value="&lt;font color=&quot;#ffffff&quot;&gt;n Users&amp;nbsp; Policy&lt;/font&gt;" style="whiteSpace=wrap;html=1;verticalAlign=top;fillColor=#7AA116;strokeColor=none;fontColor=#232F3E;sketch=0;gradientColor=none;dashed=0;fontStyle=0;" vertex="1" parent="1">
          <mxGeometry x="272.41" y="438.5" width="120" height="30.75" as="geometry" />
        </mxCell>
        <mxCell id="NBTSeYGd2M1Dg0aQ-eE9-28" value="" style="rounded=1;arcSize=10;dashed=1;strokeColor=#ff0000;fillColor=none;gradientColor=none;dashPattern=8 4;strokeWidth=2;" vertex="1" parent="1">
          <mxGeometry x="510" y="140.25" width="220" height="199.5" as="geometry" />
        </mxCell>
        <mxCell id="NBTSeYGd2M1Dg0aQ-eE9-39" value="" style="edgeStyle=orthogonalEdgeStyle;rounded=0;orthogonalLoop=1;jettySize=auto;html=1;" edge="1" parent="1" source="NBTSeYGd2M1Dg0aQ-eE9-37" target="NBTSeYGd2M1Dg0aQ-eE9-38">
          <mxGeometry relative="1" as="geometry" />
        </mxCell>
        <mxCell id="NBTSeYGd2M1Dg0aQ-eE9-37" value="" style="sketch=0;html=1;dashed=0;whitespace=wrap;fillColor=#2875E2;strokeColor=#ffffff;points=[[0.005,0.63,0],[0.1,0.2,0],[0.9,0.2,0],[0.5,0,0],[0.995,0.63,0],[0.72,0.99,0],[0.5,1,0],[0.28,0.99,0]];verticalLabelPosition=bottom;align=center;verticalAlign=top;shape=mxgraph.kubernetes.icon;prIcon=secret" vertex="1" parent="1">
          <mxGeometry x="520" y="172" width="40" height="38" as="geometry" />
        </mxCell>
        <mxCell id="NBTSeYGd2M1Dg0aQ-eE9-38" value="&lt;font color=&quot;#ffffff&quot;&gt;User 1Secret&lt;/font&gt;" style="whiteSpace=wrap;html=1;verticalAlign=top;fillColor=#2875E2;strokeColor=#ffffff;sketch=0;dashed=0;" vertex="1" parent="1">
          <mxGeometry x="620" y="176" width="100" height="30" as="geometry" />
        </mxCell>
        <mxCell id="NBTSeYGd2M1Dg0aQ-eE9-48" value="" style="edgeStyle=orthogonalEdgeStyle;rounded=0;orthogonalLoop=1;jettySize=auto;html=1;" edge="1" parent="1" source="NBTSeYGd2M1Dg0aQ-eE9-41" target="NBTSeYGd2M1Dg0aQ-eE9-46">
          <mxGeometry relative="1" as="geometry" />
        </mxCell>
        <mxCell id="NBTSeYGd2M1Dg0aQ-eE9-41" value="" style="sketch=0;html=1;dashed=0;whitespace=wrap;fillColor=#2875E2;strokeColor=#ffffff;points=[[0.005,0.63,0],[0.1,0.2,0],[0.9,0.2,0],[0.5,0,0],[0.995,0.63,0],[0.72,0.99,0],[0.5,1,0],[0.28,0.99,0]];verticalLabelPosition=bottom;align=center;verticalAlign=top;shape=mxgraph.kubernetes.icon;prIcon=secret" vertex="1" parent="1">
          <mxGeometry x="525" y="230" width="40" height="40" as="geometry" />
        </mxCell>
        <mxCell id="NBTSeYGd2M1Dg0aQ-eE9-46" value="&lt;font color=&quot;#ffffff&quot;&gt;User&amp;nbsp; 2 Secret&lt;/font&gt;" style="whiteSpace=wrap;html=1;verticalAlign=top;fillColor=#2875E2;strokeColor=#ffffff;sketch=0;dashed=0;" vertex="1" parent="1">
          <mxGeometry x="620" y="235" width="100" height="30" as="geometry" />
        </mxCell>
        <mxCell id="NBTSeYGd2M1Dg0aQ-eE9-53" style="edgeStyle=orthogonalEdgeStyle;rounded=0;orthogonalLoop=1;jettySize=auto;html=1;exitX=0.995;exitY=0.63;exitDx=0;exitDy=0;exitPerimeter=0;entryX=0;entryY=0.5;entryDx=0;entryDy=0;" edge="1" parent="1" source="NBTSeYGd2M1Dg0aQ-eE9-49" target="NBTSeYGd2M1Dg0aQ-eE9-51">
          <mxGeometry relative="1" as="geometry" />
        </mxCell>
        <mxCell id="NBTSeYGd2M1Dg0aQ-eE9-49" value="" style="sketch=0;html=1;dashed=0;whitespace=wrap;fillColor=#2875E2;strokeColor=#ffffff;points=[[0.005,0.63,0],[0.1,0.2,0],[0.9,0.2,0],[0.5,0,0],[0.995,0.63,0],[0.72,0.99,0],[0.5,1,0],[0.28,0.99,0]];verticalLabelPosition=bottom;align=center;verticalAlign=top;shape=mxgraph.kubernetes.icon;prIcon=secret" vertex="1" parent="1">
          <mxGeometry x="525" y="285.25" width="40" height="40" as="geometry" />
        </mxCell>
        <mxCell id="NBTSeYGd2M1Dg0aQ-eE9-51" value="&lt;font color=&quot;#ffffff&quot;&gt;n Users Secrets&lt;/font&gt;" style="whiteSpace=wrap;html=1;verticalAlign=top;fillColor=#2875E2;strokeColor=#ffffff;sketch=0;dashed=0;" vertex="1" parent="1">
          <mxGeometry x="620" y="295.25" width="100" height="30" as="geometry" />
        </mxCell>
        <mxCell id="NBTSeYGd2M1Dg0aQ-eE9-55" style="edgeStyle=orthogonalEdgeStyle;rounded=0;orthogonalLoop=1;jettySize=auto;html=1;exitX=1;exitY=0.5;exitDx=0;exitDy=0;entryX=0.5;entryY=1;entryDx=0;entryDy=0;entryPerimeter=0;" edge="1" parent="1" source="NBTSeYGd2M1Dg0aQ-eE9-26" target="NBTSeYGd2M1Dg0aQ-eE9-49">
          <mxGeometry relative="1" as="geometry" />
        </mxCell>
        <mxCell id="NBTSeYGd2M1Dg0aQ-eE9-56" style="edgeStyle=orthogonalEdgeStyle;rounded=0;orthogonalLoop=1;jettySize=auto;html=1;entryX=0.005;entryY=0.63;entryDx=0;entryDy=0;entryPerimeter=0;" edge="1" parent="1" source="NBTSeYGd2M1Dg0aQ-eE9-14" target="NBTSeYGd2M1Dg0aQ-eE9-41">
          <mxGeometry relative="1" as="geometry" />
        </mxCell>
        <mxCell id="NBTSeYGd2M1Dg0aQ-eE9-58" style="edgeStyle=orthogonalEdgeStyle;rounded=0;orthogonalLoop=1;jettySize=auto;html=1;entryX=0.005;entryY=0.63;entryDx=0;entryDy=0;entryPerimeter=0;" edge="1" parent="1" source="NBTSeYGd2M1Dg0aQ-eE9-12" target="NBTSeYGd2M1Dg0aQ-eE9-37">
          <mxGeometry relative="1" as="geometry" />
        </mxCell>
      </root>
    </mxGraphModel>
  </diagram>
</mxfile>
